<svg xmlns="http://www.w3.org/2000/svg" viewBox="0 0 500 1550" fill="none">
  <!-- 1. Gate/Barrier -->
  <g transform="translate(50, 50)">
    <text x="0" y="-30" font-family="Arial" font-size="12" fill="currentColor">1. Gate/Barrier</text>
    <rect x="30" y="0" width="40" height="50" rx="2" stroke="currentColor" stroke-width="4" fill="none"/>
    <line x1="50" y1="0" x2="50" y2="50" stroke="currentColor" stroke-width="4"/>
    <circle cx="20" cy="25" r="3" fill="currentColor"/>
    <line x1="10" y1="25" x2="30" y2="25" stroke="currentColor" stroke-width="3" stroke-linecap="round"/>
  </g>

  <!-- 2. Shield with Checkmark -->
  <g transform="translate(50, 200)">
    <text x="0" y="-30" font-family="Arial" font-size="12" fill="currentColor">2. Shield with Checkmark</text>
    <path d="M50 15 
             L20 25 
             L20 50 
             C20 65, 30 80, 50 85 
             C70 80, 80 65, 80 50 
             L80 25 
             Z" 
          stroke="currentColor" 
          stroke-width="4" 
          stroke-linecap="round" 
          stroke-linejoin="round" 
          fill="none"/>
    <path d="M40 50 L47 57 L60 40" 
          stroke="currentColor" 
          stroke-width="4" 
          stroke-linecap="round" 
          stroke-linejoin="round" 
          fill="none"/>
  </g>

  <!-- 3. Lock with Keyhole -->
  <g transform="translate(50, 350)">
    <text x="0" y="-30" font-family="Arial" font-size="12" fill="currentColor">3. Lock with Keyhole</text>
    <rect x="35" y="30" width="30" height="35" rx="3" stroke="currentColor" stroke-width="4" fill="none"/>
    <path d="M50 30 
             C50 20, 40 15, 30 20 
             C20 25, 20 35, 30 35 
             L30 30" 
          stroke="currentColor" 
          stroke-width="4" 
          stroke-linecap="round" 
          stroke-linejoin="round" 
          fill="none"/>
    <circle cx="50" cy="47" r="4" fill="currentColor"/>
  </g>

  <!-- 4. Decision Node/Branching Path -->
  <g transform="translate(50, 500)">
    <text x="0" y="-30" font-family="Arial" font-size="12" fill="currentColor">4. Decision Node/Branching Path</text>
    <line x1="50" y1="0" x2="50" y2="30" stroke="currentColor" stroke-width="4" stroke-linecap="round"/>
    <line x1="50" y1="30" x2="30" y2="50" stroke="currentColor" stroke-width="4" stroke-linecap="round"/>
    <line x1="50" y1="30" x2="70" y2="50" stroke="currentColor" stroke-width="4" stroke-linecap="round"/>
    <circle cx="50" cy="30" r="5" fill="currentColor"/>
    <line x1="30" y1="50" x2="30" y2="70" stroke="currentColor" stroke-width="3" stroke-linecap="round"/>
    <line x1="70" y1="50" x2="70" y2="70" stroke="currentColor" stroke-width="3" stroke-linecap="round"/>
  </g>

  <!-- 5. Document/Scroll with Check -->
  <g transform="translate(50, 650)">
    <text x="0" y="-30" font-family="Arial" font-size="12" fill="currentColor">5. Document/Scroll with Check</text>
    <rect x="30" y="20" width="40" height="50" rx="2" stroke="currentColor" stroke-width="4" fill="none"/>
    <line x1="35" y1="30" x2="60" y2="30" stroke="currentColor" stroke-width="2"/>
    <line x1="35" y1="40" x2="55" y2="40" stroke="currentColor" stroke-width="2"/>
    <path d="M40 55 L47 62 L60 48" 
          stroke="currentColor" 
          stroke-width="4" 
          stroke-linecap="round" 
          stroke-linejoin="round" 
          fill="none"/>
  </g>

  <!-- 6. Arrow Through Gate -->
  <g transform="translate(50, 800)">
    <text x="0" y="-30" font-family="Arial" font-size="12" fill="currentColor">6. Arrow Through Gate</text>
    <rect x="25" y="20" width="50" height="40" rx="2" stroke="currentColor" stroke-width="4" fill="none"/>
    <line x1="50" y1="20" x2="50" y2="60" stroke="currentColor" stroke-width="4"/>
    <path d="M10 40 L35 40" 
          stroke="currentColor" 
          stroke-width="4" 
          stroke-linecap="round"/>
    <path d="M30 35 L35 40 L30 45" 
          stroke="currentColor" 
          stroke-width="4" 
          stroke-linecap="round" 
          stroke-linejoin="round" 
          fill="none"/>
  </g>

  <!-- 7. Interlocking Shapes -->
  <g transform="translate(50, 950)">
    <text x="0" y="-30" font-family="Arial" font-size="12" fill="currentColor">7. Interlocking Shapes</text>
    <rect x="30" y="25" width="25" height="25" rx="3" stroke="currentColor" stroke-width="4" fill="none"/>
    <rect x="45" y="25" width="25" height="25" rx="3" stroke="currentColor" stroke-width="4" fill="none"/>
    <circle cx="50" cy="37" r="8" stroke="currentColor" stroke-width="4" fill="none"/>
  </g>

  <!-- 8. Badge/Medal -->
  <g transform="translate(50, 1100)">
    <text x="0" y="-30" font-family="Arial" font-size="12" fill="currentColor">8. Badge/Medal</text>
    <circle cx="50" cy="40" r="25" stroke="currentColor" stroke-width="4" fill="none"/>
    <path d="M50 20 
             L45 30 
             L35 32 
             L42 40 
             L40 50 
             L50 45 
             L60 50 
             L58 40 
             L65 32 
             L55 30 
             Z" 
          stroke="currentColor" 
          stroke-width="3" 
          stroke-linecap="round" 
          stroke-linejoin="round" 
          fill="none"/>
  </g>

  <!-- 9. Circuit/Flow Diagram -->
  <g transform="translate(50, 1250)">
    <text x="0" y="-30" font-family="Arial" font-size="12" fill="currentColor">9. Circuit/Flow Diagram</text>
    <rect x="30" y="20" width="15" height="15" rx="2" stroke="currentColor" stroke-width="3" fill="none"/>
    <rect x="55" y="20" width="15" height="15" rx="2" stroke="currentColor" stroke-width="3" fill="none"/>
    <line x1="45" y1="27" x2="55" y2="27" stroke="currentColor" stroke-width="3" stroke-linecap="round"/>
    <line x1="50" y1="35" x2="50" y2="50" stroke="currentColor" stroke-width="3" stroke-linecap="round"/>
    <circle cx="50" cy="55" r="5" fill="currentColor"/>
  </g>

  <!-- 10. Shield with "S" -->
  <g transform="translate(50, 1400)">
    <text x="0" y="-30" font-family="Arial" font-size="12" fill="currentColor">10. Shield with "S"</text>
    <path d="M50 15 
             L20 25 
             L20 50 
             C20 65, 30 80, 50 85 
             C70 80, 80 65, 80 50 
             L80 25 
             Z" 
          stroke="currentColor" 
          stroke-width="4" 
          stroke-linecap="round" 
          stroke-linejoin="round" 
          fill="none"/>
    <path d="M35 35 
             C35 35, 35 45, 40 45 
             C45 45, 45 50, 45 50 
             C45 55, 45 60, 40 60 
             C35 60, 35 65, 35 65" 
          stroke="currentColor" 
          stroke-width="3.5" 
          stroke-linecap="round" 
          stroke-linejoin="round" 
          fill="none"/>
    <path d="M55 50 
             C55 50, 55 60, 60 60 
             C65 60, 65 65, 65 65" 
          stroke="currentColor" 
          stroke-width="3.5" 
          stroke-linecap="round" 
          stroke-linejoin="round" 
          fill="none"/>
  </g>

  <!-- 11. Shield with Checkmark and Arrow -->
  <g transform="translate(50, 1550)">
    <text x="0" y="-30" font-family="Arial" font-size="12" fill="currentColor">11. Shield, Checkmark, Arrow</text>
    <path d="M50 15 
             L20 25 
             L20 50 
             C20 65, 30 80, 50 85 
             C70 80, 80 65, 80 50 
             L80 25 
             Z" 
          stroke="currentColor" 
          stroke-width="4" 
          stroke-linecap="round" 
          stroke-linejoin="round" 
          fill="none"/>
    <path d="M40 50 L47 57 L60 40" 
          stroke="currentColor" 
          stroke-width="4" 
          stroke-linecap="round" 
          stroke-linejoin="round" 
          fill="none"/>
    <path d="M50 85 L50 95" 
          stroke="currentColor" 
          stroke-width="4" 
          stroke-linecap="round"/>
    <path d="M45 90 L50 95 L55 90" 
          stroke="currentColor" 
          stroke-width="4" 
          stroke-linecap="round" 
          stroke-linejoin="round" 
          fill="none"/>
  </g>
</svg>
